<mxfile host="app.diagrams.net" agent="Mozilla/5.0 (Windows NT 10.0; Win64; x64) AppleWebKit/537.36 (KHTML, like Gecko) Chrome/130.0.0.0 Safari/537.36" version="24.7.17">
  <diagram name="第 1 页" id="A334MZe8HALjlQIvjsGi">
    <mxGraphModel dx="3148" dy="1638" grid="1" gridSize="10" guides="1" tooltips="1" connect="1" arrows="1" fold="1" page="1" pageScale="1" pageWidth="1600" pageHeight="1200" math="0" shadow="0">
      <root>
        <mxCell id="0" />
        <mxCell id="1" parent="0" />
        <mxCell id="t8Ih_F4m58MX2v_nehnP-7" value="" style="group" vertex="1" connectable="0" parent="1">
          <mxGeometry x="250" y="140" width="1100" height="930" as="geometry" />
        </mxCell>
        <mxCell id="KnfUpH4XHAzFLRxAlQK8-1" value="開始" style="rounded=1;whiteSpace=wrap;html=1;fontSize=15;movable=1;resizable=1;rotatable=1;deletable=1;editable=1;locked=0;connectable=1;" parent="t8Ih_F4m58MX2v_nehnP-7" vertex="1">
          <mxGeometry x="260" width="120" height="60" as="geometry" />
        </mxCell>
        <mxCell id="KnfUpH4XHAzFLRxAlQK8-3" value="" style="endArrow=classic;html=1;rounded=0;movable=1;resizable=1;rotatable=1;deletable=1;editable=1;locked=0;connectable=1;" parent="t8Ih_F4m58MX2v_nehnP-7" edge="1">
          <mxGeometry width="50" height="50" relative="1" as="geometry">
            <mxPoint x="319.5" y="60" as="sourcePoint" />
            <mxPoint x="320" y="110" as="targetPoint" />
          </mxGeometry>
        </mxCell>
        <mxCell id="KnfUpH4XHAzFLRxAlQK8-5" style="edgeStyle=orthogonalEdgeStyle;rounded=0;orthogonalLoop=1;jettySize=auto;html=1;exitX=0.5;exitY=1;exitDx=0;exitDy=0;movable=1;resizable=1;rotatable=1;deletable=1;editable=1;locked=0;connectable=1;" parent="t8Ih_F4m58MX2v_nehnP-7" source="KnfUpH4XHAzFLRxAlQK8-4" edge="1">
          <mxGeometry relative="1" as="geometry">
            <mxPoint x="320" y="210" as="targetPoint" />
          </mxGeometry>
        </mxCell>
        <mxCell id="KnfUpH4XHAzFLRxAlQK8-4" value="輸入句子" style="shape=parallelogram;perimeter=parallelogramPerimeter;whiteSpace=wrap;html=1;fixedSize=1;fontSize=15;movable=1;resizable=1;rotatable=1;deletable=1;editable=1;locked=0;connectable=1;" parent="t8Ih_F4m58MX2v_nehnP-7" vertex="1">
          <mxGeometry x="245" y="110" width="150" height="60" as="geometry" />
        </mxCell>
        <mxCell id="KnfUpH4XHAzFLRxAlQK8-8" style="edgeStyle=orthogonalEdgeStyle;rounded=0;orthogonalLoop=1;jettySize=auto;html=1;exitX=0;exitY=0.5;exitDx=0;exitDy=0;movable=1;resizable=1;rotatable=1;deletable=1;editable=1;locked=0;connectable=1;" parent="t8Ih_F4m58MX2v_nehnP-7" source="KnfUpH4XHAzFLRxAlQK8-6" edge="1">
          <mxGeometry relative="1" as="geometry">
            <mxPoint x="180" y="390" as="targetPoint" />
          </mxGeometry>
        </mxCell>
        <mxCell id="KnfUpH4XHAzFLRxAlQK8-16" style="edgeStyle=orthogonalEdgeStyle;rounded=0;orthogonalLoop=1;jettySize=auto;html=1;exitX=1;exitY=0.5;exitDx=0;exitDy=0;movable=1;resizable=1;rotatable=1;deletable=1;editable=1;locked=0;connectable=1;" parent="t8Ih_F4m58MX2v_nehnP-7" source="KnfUpH4XHAzFLRxAlQK8-6" target="KnfUpH4XHAzFLRxAlQK8-36" edge="1">
          <mxGeometry relative="1" as="geometry">
            <mxPoint x="940" y="500" as="targetPoint" />
            <Array as="points">
              <mxPoint x="1000" y="250" />
            </Array>
          </mxGeometry>
        </mxCell>
        <mxCell id="KnfUpH4XHAzFLRxAlQK8-6" value="LOKI 判斷是否有BA句" style="rhombus;whiteSpace=wrap;html=1;fontSize=14;movable=1;resizable=1;rotatable=1;deletable=1;editable=1;locked=0;connectable=1;" parent="t8Ih_F4m58MX2v_nehnP-7" vertex="1">
          <mxGeometry x="220" y="210" width="200" height="80" as="geometry" />
        </mxCell>
        <mxCell id="t8Ih_F4m58MX2v_nehnP-4" value="" style="edgeStyle=orthogonalEdgeStyle;rounded=0;orthogonalLoop=1;jettySize=auto;html=1;movable=1;resizable=1;rotatable=1;deletable=1;editable=1;locked=0;connectable=1;" edge="1" parent="t8Ih_F4m58MX2v_nehnP-7" target="KnfUpH4XHAzFLRxAlQK8-17">
          <mxGeometry relative="1" as="geometry">
            <mxPoint x="180" y="320" as="sourcePoint" />
            <mxPoint x="350" y="330" as="targetPoint" />
            <Array as="points">
              <mxPoint x="180" y="330" />
              <mxPoint x="365" y="330" />
            </Array>
          </mxGeometry>
        </mxCell>
        <mxCell id="KnfUpH4XHAzFLRxAlQK8-10" value="&lt;font style=&quot;font-size: 20px;&quot;&gt;是&lt;/font&gt;" style="text;html=1;align=center;verticalAlign=middle;resizable=1;points=[];autosize=1;strokeColor=none;fillColor=none;strokeWidth=12;fontSize=20;movable=1;rotatable=1;deletable=1;editable=1;locked=0;connectable=1;" parent="t8Ih_F4m58MX2v_nehnP-7" vertex="1">
          <mxGeometry x="120" y="310" width="40" height="40" as="geometry" />
        </mxCell>
        <mxCell id="KnfUpH4XHAzFLRxAlQK8-11" value="&lt;span style=&quot;font-size: 20px;&quot;&gt;否&lt;/span&gt;" style="text;html=1;align=center;verticalAlign=middle;resizable=1;points=[];autosize=1;strokeColor=none;fillColor=none;fontSize=20;movable=1;rotatable=1;deletable=1;editable=1;locked=0;connectable=1;" parent="t8Ih_F4m58MX2v_nehnP-7" vertex="1">
          <mxGeometry x="940" y="310" width="40" height="40" as="geometry" />
        </mxCell>
        <mxCell id="KnfUpH4XHAzFLRxAlQK8-26" style="edgeStyle=orthogonalEdgeStyle;rounded=0;orthogonalLoop=1;jettySize=auto;html=1;exitX=0;exitY=0.5;exitDx=0;exitDy=0;movable=1;resizable=1;rotatable=1;deletable=1;editable=1;locked=0;connectable=1;" parent="t8Ih_F4m58MX2v_nehnP-7" source="KnfUpH4XHAzFLRxAlQK8-12" edge="1">
          <mxGeometry relative="1" as="geometry">
            <mxPoint x="90" y="550" as="targetPoint" />
          </mxGeometry>
        </mxCell>
        <mxCell id="KnfUpH4XHAzFLRxAlQK8-12" value="&lt;font style=&quot;font-size: 15px;&quot;&gt;VDO&lt;/font&gt;" style="rhombus;whiteSpace=wrap;html=1;movable=1;resizable=1;rotatable=1;deletable=1;editable=1;locked=0;connectable=1;" parent="t8Ih_F4m58MX2v_nehnP-7" vertex="1">
          <mxGeometry x="110" y="390" width="150" height="80" as="geometry" />
        </mxCell>
        <mxCell id="KnfUpH4XHAzFLRxAlQK8-29" style="edgeStyle=orthogonalEdgeStyle;rounded=0;orthogonalLoop=1;jettySize=auto;html=1;exitX=0.5;exitY=1;exitDx=0;exitDy=0;movable=1;resizable=1;rotatable=1;deletable=1;editable=1;locked=0;connectable=1;" parent="t8Ih_F4m58MX2v_nehnP-7" source="KnfUpH4XHAzFLRxAlQK8-17" edge="1">
          <mxGeometry relative="1" as="geometry">
            <mxPoint x="364.82352941176464" y="550" as="targetPoint" />
          </mxGeometry>
        </mxCell>
        <mxCell id="KnfUpH4XHAzFLRxAlQK8-17" value="&lt;span style=&quot;font-size: 15px;&quot;&gt;SCS&lt;/span&gt;" style="rhombus;whiteSpace=wrap;html=1;movable=1;resizable=1;rotatable=1;deletable=1;editable=1;locked=0;connectable=1;" parent="t8Ih_F4m58MX2v_nehnP-7" vertex="1">
          <mxGeometry x="290" y="390" width="150" height="80" as="geometry" />
        </mxCell>
        <mxCell id="KnfUpH4XHAzFLRxAlQK8-31" style="edgeStyle=orthogonalEdgeStyle;rounded=0;orthogonalLoop=1;jettySize=auto;html=1;entryX=0.551;entryY=0.006;entryDx=0;entryDy=0;entryPerimeter=0;movable=1;resizable=1;rotatable=1;deletable=1;editable=1;locked=0;connectable=1;" parent="t8Ih_F4m58MX2v_nehnP-7" source="KnfUpH4XHAzFLRxAlQK8-18" target="KnfUpH4XHAzFLRxAlQK8-32" edge="1">
          <mxGeometry relative="1" as="geometry">
            <mxPoint x="600" y="540" as="targetPoint" />
          </mxGeometry>
        </mxCell>
        <mxCell id="KnfUpH4XHAzFLRxAlQK8-18" value="&lt;font style=&quot;font-size: 15px;&quot;&gt;VIO&lt;/font&gt;" style="rhombus;whiteSpace=wrap;html=1;movable=1;resizable=1;rotatable=1;deletable=1;editable=1;locked=0;connectable=1;" parent="t8Ih_F4m58MX2v_nehnP-7" vertex="1">
          <mxGeometry x="520" y="390" width="150" height="80" as="geometry" />
        </mxCell>
        <mxCell id="KnfUpH4XHAzFLRxAlQK8-19" value="&lt;font style=&quot;font-size: 15px;&quot;&gt;SCO&lt;/font&gt;" style="rhombus;whiteSpace=wrap;html=1;movable=1;resizable=1;rotatable=1;deletable=1;editable=1;locked=0;connectable=1;" parent="t8Ih_F4m58MX2v_nehnP-7" vertex="1">
          <mxGeometry x="710" y="390" width="150" height="80" as="geometry" />
        </mxCell>
        <mxCell id="KnfUpH4XHAzFLRxAlQK8-27" value="輸出結果：&lt;div&gt;是「把」字句，是 VDO 把字句&lt;/div&gt;" style="shape=parallelogram;perimeter=parallelogramPerimeter;whiteSpace=wrap;html=1;fixedSize=1;movable=1;resizable=1;rotatable=1;deletable=1;editable=1;locked=0;connectable=1;" parent="t8Ih_F4m58MX2v_nehnP-7" vertex="1">
          <mxGeometry y="550" width="210" height="60" as="geometry" />
        </mxCell>
        <mxCell id="KnfUpH4XHAzFLRxAlQK8-28" value="&lt;font style=&quot;font-size: 20px;&quot;&gt;是&lt;/font&gt;" style="text;html=1;align=center;verticalAlign=middle;resizable=1;points=[];autosize=1;strokeColor=none;fillColor=none;strokeWidth=12;fontSize=20;movable=1;rotatable=1;deletable=1;editable=1;locked=0;connectable=1;" parent="t8Ih_F4m58MX2v_nehnP-7" vertex="1">
          <mxGeometry x="30" y="470" width="40" height="40" as="geometry" />
        </mxCell>
        <mxCell id="KnfUpH4XHAzFLRxAlQK8-30" value="輸出結果：&lt;div&gt;是「把」字句，是 SCS 把字句&lt;/div&gt;" style="shape=parallelogram;perimeter=parallelogramPerimeter;whiteSpace=wrap;html=1;fixedSize=1;movable=1;resizable=1;rotatable=1;deletable=1;editable=1;locked=0;connectable=1;" parent="t8Ih_F4m58MX2v_nehnP-7" vertex="1">
          <mxGeometry x="260" y="550" width="210" height="60" as="geometry" />
        </mxCell>
        <mxCell id="KnfUpH4XHAzFLRxAlQK8-32" value="輸出結果：&lt;div&gt;是「把」字句，是 VIO 把字句&lt;/div&gt;" style="shape=parallelogram;perimeter=parallelogramPerimeter;whiteSpace=wrap;html=1;fixedSize=1;movable=1;resizable=1;rotatable=1;deletable=1;editable=1;locked=0;connectable=1;" parent="t8Ih_F4m58MX2v_nehnP-7" vertex="1">
          <mxGeometry x="480" y="550" width="210" height="60" as="geometry" />
        </mxCell>
        <mxCell id="KnfUpH4XHAzFLRxAlQK8-34" value="輸出結果：&lt;div&gt;是「把」字句，是 SCO 把字句&lt;/div&gt;" style="shape=parallelogram;perimeter=parallelogramPerimeter;whiteSpace=wrap;html=1;fixedSize=1;movable=1;resizable=1;rotatable=1;deletable=1;editable=1;locked=0;connectable=1;" parent="t8Ih_F4m58MX2v_nehnP-7" vertex="1">
          <mxGeometry x="690" y="550" width="210" height="60" as="geometry" />
        </mxCell>
        <mxCell id="KnfUpH4XHAzFLRxAlQK8-35" style="edgeStyle=orthogonalEdgeStyle;rounded=0;orthogonalLoop=1;jettySize=auto;html=1;entryX=0.452;entryY=0;entryDx=0;entryDy=0;entryPerimeter=0;movable=1;resizable=1;rotatable=1;deletable=1;editable=1;locked=0;connectable=1;" parent="t8Ih_F4m58MX2v_nehnP-7" source="KnfUpH4XHAzFLRxAlQK8-19" target="KnfUpH4XHAzFLRxAlQK8-34" edge="1">
          <mxGeometry relative="1" as="geometry">
            <mxPoint x="785" y="530" as="targetPoint" />
          </mxGeometry>
        </mxCell>
        <mxCell id="KnfUpH4XHAzFLRxAlQK8-36" value="輸出結果：&lt;div style=&quot;font-size: 15px;&quot;&gt;不是「把」字句&lt;/div&gt;" style="shape=parallelogram;perimeter=parallelogramPerimeter;whiteSpace=wrap;html=1;fixedSize=1;fontSize=15;movable=1;resizable=1;rotatable=1;deletable=1;editable=1;locked=0;connectable=1;" parent="t8Ih_F4m58MX2v_nehnP-7" vertex="1">
          <mxGeometry x="890" y="450" width="210" height="60" as="geometry" />
        </mxCell>
        <mxCell id="KnfUpH4XHAzFLRxAlQK8-37" value="&lt;font style=&quot;font-size: 20px;&quot;&gt;是&lt;/font&gt;" style="text;html=1;align=center;verticalAlign=middle;resizable=1;points=[];autosize=1;strokeColor=none;fillColor=none;strokeWidth=12;fontSize=20;movable=1;rotatable=1;deletable=1;editable=1;locked=0;connectable=1;" parent="t8Ih_F4m58MX2v_nehnP-7" vertex="1">
          <mxGeometry x="310" y="480" width="40" height="40" as="geometry" />
        </mxCell>
        <mxCell id="KnfUpH4XHAzFLRxAlQK8-38" value="&lt;font style=&quot;font-size: 20px;&quot;&gt;是&lt;/font&gt;" style="text;html=1;align=center;verticalAlign=middle;resizable=1;points=[];autosize=1;strokeColor=none;fillColor=none;strokeWidth=12;fontSize=20;movable=1;rotatable=1;deletable=1;editable=1;locked=0;connectable=1;" parent="t8Ih_F4m58MX2v_nehnP-7" vertex="1">
          <mxGeometry x="550" y="480" width="40" height="40" as="geometry" />
        </mxCell>
        <mxCell id="KnfUpH4XHAzFLRxAlQK8-39" value="&lt;font style=&quot;font-size: 20px;&quot;&gt;是&lt;/font&gt;" style="text;html=1;align=center;verticalAlign=middle;resizable=1;points=[];autosize=1;strokeColor=none;fillColor=none;strokeWidth=12;fontSize=20;movable=1;rotatable=1;deletable=1;editable=1;locked=0;connectable=1;" parent="t8Ih_F4m58MX2v_nehnP-7" vertex="1">
          <mxGeometry x="730" y="480" width="40" height="40" as="geometry" />
        </mxCell>
        <mxCell id="KnfUpH4XHAzFLRxAlQK8-45" value="" style="endArrow=none;html=1;rounded=0;exitX=0.5;exitY=1;exitDx=0;exitDy=0;movable=1;resizable=1;rotatable=1;deletable=1;editable=1;locked=0;connectable=1;" parent="t8Ih_F4m58MX2v_nehnP-7" source="KnfUpH4XHAzFLRxAlQK8-27" edge="1">
          <mxGeometry width="50" height="50" relative="1" as="geometry">
            <mxPoint x="200" y="670" as="sourcePoint" />
            <mxPoint x="105" y="750" as="targetPoint" />
          </mxGeometry>
        </mxCell>
        <mxCell id="KnfUpH4XHAzFLRxAlQK8-47" value="" style="endArrow=none;html=1;rounded=0;exitX=0.5;exitY=1;exitDx=0;exitDy=0;movable=1;resizable=1;rotatable=1;deletable=1;editable=1;locked=0;connectable=1;" parent="t8Ih_F4m58MX2v_nehnP-7" edge="1">
          <mxGeometry width="50" height="50" relative="1" as="geometry">
            <mxPoint x="364" y="610" as="sourcePoint" />
            <mxPoint x="364" y="750" as="targetPoint" />
          </mxGeometry>
        </mxCell>
        <mxCell id="KnfUpH4XHAzFLRxAlQK8-48" value="" style="endArrow=none;html=1;rounded=0;exitX=0.5;exitY=1;exitDx=0;exitDy=0;movable=1;resizable=1;rotatable=1;deletable=1;editable=1;locked=0;connectable=1;" parent="t8Ih_F4m58MX2v_nehnP-7" edge="1">
          <mxGeometry width="50" height="50" relative="1" as="geometry">
            <mxPoint x="590" y="610" as="sourcePoint" />
            <mxPoint x="590" y="750" as="targetPoint" />
          </mxGeometry>
        </mxCell>
        <mxCell id="KnfUpH4XHAzFLRxAlQK8-49" value="" style="endArrow=none;html=1;rounded=0;exitX=0.5;exitY=1;exitDx=0;exitDy=0;movable=1;resizable=1;rotatable=1;deletable=1;editable=1;locked=0;connectable=1;" parent="t8Ih_F4m58MX2v_nehnP-7" edge="1">
          <mxGeometry width="50" height="50" relative="1" as="geometry">
            <mxPoint x="800" y="610" as="sourcePoint" />
            <mxPoint x="800" y="750" as="targetPoint" />
          </mxGeometry>
        </mxCell>
        <mxCell id="KnfUpH4XHAzFLRxAlQK8-50" value="" style="endArrow=none;html=1;rounded=0;movable=1;resizable=1;rotatable=1;deletable=1;editable=1;locked=0;connectable=1;" parent="t8Ih_F4m58MX2v_nehnP-7" edge="1">
          <mxGeometry width="50" height="50" relative="1" as="geometry">
            <mxPoint x="105" y="750" as="sourcePoint" />
            <mxPoint x="800" y="750" as="targetPoint" />
          </mxGeometry>
        </mxCell>
        <mxCell id="KnfUpH4XHAzFLRxAlQK8-54" value="" style="endArrow=classic;html=1;rounded=0;movable=1;resizable=1;rotatable=1;deletable=1;editable=1;locked=0;connectable=1;" parent="t8Ih_F4m58MX2v_nehnP-7" edge="1">
          <mxGeometry width="50" height="50" relative="1" as="geometry">
            <mxPoint x="440" y="750" as="sourcePoint" />
            <mxPoint x="440" y="870" as="targetPoint" />
          </mxGeometry>
        </mxCell>
        <mxCell id="KnfUpH4XHAzFLRxAlQK8-55" value="結束" style="rounded=1;whiteSpace=wrap;html=1;fontSize=15;movable=1;resizable=1;rotatable=1;deletable=1;editable=1;locked=0;connectable=1;" parent="t8Ih_F4m58MX2v_nehnP-7" vertex="1">
          <mxGeometry x="380" y="870" width="120" height="60" as="geometry" />
        </mxCell>
        <mxCell id="KnfUpH4XHAzFLRxAlQK8-56" value="&lt;span style=&quot;font-size: 20px;&quot;&gt;否&lt;/span&gt;" style="text;html=1;align=center;verticalAlign=middle;resizable=1;points=[];autosize=1;strokeColor=none;fillColor=none;fontSize=20;movable=1;rotatable=1;deletable=1;editable=1;locked=0;connectable=1;" parent="t8Ih_F4m58MX2v_nehnP-7" vertex="1">
          <mxGeometry x="260" y="370" width="40" height="40" as="geometry" />
        </mxCell>
        <mxCell id="KnfUpH4XHAzFLRxAlQK8-57" value="&lt;span style=&quot;font-size: 20px;&quot;&gt;否&lt;/span&gt;" style="text;html=1;align=center;verticalAlign=middle;resizable=1;points=[];autosize=1;strokeColor=none;fillColor=none;fontSize=20;movable=1;rotatable=1;deletable=1;editable=1;locked=0;connectable=1;" parent="t8Ih_F4m58MX2v_nehnP-7" vertex="1">
          <mxGeometry x="460" y="370" width="40" height="40" as="geometry" />
        </mxCell>
        <mxCell id="KnfUpH4XHAzFLRxAlQK8-58" value="&lt;span style=&quot;font-size: 20px;&quot;&gt;否&lt;/span&gt;" style="text;html=1;align=center;verticalAlign=middle;resizable=1;points=[];autosize=1;strokeColor=none;fillColor=none;fontSize=20;movable=1;rotatable=1;deletable=1;editable=1;locked=0;connectable=1;" parent="t8Ih_F4m58MX2v_nehnP-7" vertex="1">
          <mxGeometry x="670" y="370" width="40" height="40" as="geometry" />
        </mxCell>
        <mxCell id="t8Ih_F4m58MX2v_nehnP-5" value="" style="edgeStyle=orthogonalEdgeStyle;rounded=0;orthogonalLoop=1;jettySize=auto;html=1;entryX=0.5;entryY=0;entryDx=0;entryDy=0;movable=1;resizable=1;rotatable=1;deletable=1;editable=1;locked=0;connectable=1;" edge="1" parent="t8Ih_F4m58MX2v_nehnP-7" target="KnfUpH4XHAzFLRxAlQK8-18">
          <mxGeometry relative="1" as="geometry">
            <mxPoint x="360" y="330" as="sourcePoint" />
            <mxPoint x="550" y="390" as="targetPoint" />
            <Array as="points">
              <mxPoint x="595" y="330" />
            </Array>
          </mxGeometry>
        </mxCell>
        <mxCell id="t8Ih_F4m58MX2v_nehnP-6" value="" style="edgeStyle=orthogonalEdgeStyle;rounded=0;orthogonalLoop=1;jettySize=auto;html=1;entryX=0.5;entryY=0;entryDx=0;entryDy=0;movable=1;resizable=1;rotatable=1;deletable=1;editable=1;locked=0;connectable=1;" edge="1" parent="t8Ih_F4m58MX2v_nehnP-7">
          <mxGeometry relative="1" as="geometry">
            <mxPoint x="550" y="330" as="sourcePoint" />
            <mxPoint x="785" y="390" as="targetPoint" />
            <Array as="points">
              <mxPoint x="785" y="330" />
            </Array>
          </mxGeometry>
        </mxCell>
      </root>
    </mxGraphModel>
  </diagram>
</mxfile>
